<svg version="1.1" id="Layer_1" xmlns="http://www.w3.org/2000/svg" xmlns:xlink="http://www.w3.org/1999/xlink" x="0px" y="0px"
	 width="100%" viewBox="0 0 512 512" enable-background="new 0 0 512 512" xml:space="preserve">
<path fill="#335373" opacity="1.000000" stroke="none" 
	d="
M513.000000,47.000004 
	C513.000000,192.024078 513.000000,337.048157 512.646606,482.460144 
	C508.664032,486.298981 505.584259,490.115906 499.605438,490.105072 
	C421.045868,489.962921 342.485931,490.005646 263.926117,489.993317 
	C261.598083,489.992950 259.270050,489.897552 256.955383,489.387634 
	C256.970612,469.349823 256.972504,449.770905 257.438721,430.112305 
	C279.255798,429.963318 300.608551,429.893921 322.427795,429.894928 
	C344.255035,429.921173 365.615814,429.876984 387.442780,429.897522 
	C404.378693,429.973755 420.848785,430.056610 437.317932,429.968445 
	C446.271637,429.920471 452.862030,423.881775 452.923035,415.209320 
	C453.099762,390.089874 453.087738,364.967773 452.930084,339.848114 
	C452.878113,331.564667 446.583405,325.166473 438.372437,325.084778 
	C421.242523,324.914276 404.108856,325.117493 386.513702,325.101257 
	C364.687653,325.082031 343.324615,325.128754 321.500641,325.105835 
	C299.683258,324.959808 278.326874,324.883453 256.977081,324.350555 
	C257.001740,314.320038 257.019775,304.746063 257.425354,295.103210 
	C267.043304,293.855255 271.968872,288.321442 272.000610,279.069885 
	C272.016571,274.421204 272.012421,269.772430 272.001526,265.123749 
	C271.978851,255.441650 266.827759,249.837311 257.028625,248.369965 
	C257.004364,238.672577 256.989532,229.432968 257.439026,220.114044 
	C277.231476,220.023773 296.559570,220.016144 315.887665,220.000519 
	C326.058472,219.992294 332.449127,214.402710 332.532501,204.259033 
	C332.774994,174.768936 332.767456,145.274460 332.540649,115.784126 
	C332.462555,105.627983 326.100861,100.024666 315.945343,99.995796 
	C296.288452,99.939919 276.631622,99.870468 256.980347,99.350136 
	C256.971222,79.313576 256.956512,59.733521 257.411499,40.101547 
	C338.693756,40.026466 419.506470,39.952396 500.318420,40.168602 
	C503.509125,40.177139 506.733063,42.873596 509.858124,44.479923 
	C511.028076,45.081295 511.959686,46.146358 513.000000,47.000004 
M443.911102,293.750702 
	C450.252594,290.618927 453.133484,285.456726 453.018127,278.452118 
	C452.938690,273.629028 453.121033,268.799835 452.970276,263.980133 
	C452.704254,255.476852 446.193604,249.032166 438.036713,249.006668 
	C429.869049,248.981140 423.289581,255.420914 423.028870,263.893860 
	C422.875427,268.879913 422.951355,273.874939 423.004913,278.865082 
	C423.129578,290.484802 432.019653,297.139862 443.911102,293.750702 
M312.674286,294.136871 
	C323.210419,296.883881 331.879669,290.585785 332.213409,279.822754 
	C332.367981,274.837738 332.320465,269.842896 332.234467,264.854767 
	C332.073456,255.515091 325.831635,248.965744 317.240936,249.003815 
	C308.948486,249.040558 302.597504,255.541382 302.281860,264.518555 
	C302.118347,269.170013 302.239807,273.831696 302.245941,278.488770 
	C302.255341,285.645386 305.200989,290.971039 312.674286,294.136871 
M366.028503,289.334961 
	C370.084015,293.983795 375.102509,296.044952 381.181610,294.483185 
	C386.959229,292.998871 391.401855,289.336670 391.981995,283.382568 
	C392.717010,275.839478 392.850769,268.087860 391.958282,260.579010 
	C391.094116,253.308197 383.902924,248.556534 376.721191,249.026077 
	C369.298065,249.511414 363.266113,255.366547 362.859589,262.898438 
	C362.573059,268.206818 362.426422,273.569122 362.865448,278.853516 
	C363.143738,282.203186 364.612091,285.453979 366.028503,289.334961 
M382.716919,205.452957 
	C389.660980,201.643890 392.941864,195.845840 391.826324,189.354492 
	C390.709442,182.854889 385.555023,177.767731 379.236145,176.928558 
	C372.938721,176.092239 367.080719,178.915283 364.044983,184.249329 
	C361.002594,189.595169 361.295685,195.843201 365.125061,200.609604 
	C369.528717,206.090836 375.199982,207.905212 382.716919,205.452957 
M440.773560,177.181671 
	C428.031738,174.340195 419.919739,186.141541 422.478210,195.215485 
	C424.425720,202.122711 430.727783,206.994019 437.536591,206.680191 
	C444.498077,206.359344 450.478271,201.119308 451.789307,194.191528 
	C453.115997,187.181152 449.218353,180.798248 440.773560,177.181671 
M423.766632,138.470856 
	C428.739227,146.108429 436.023071,148.602692 443.327271,145.169098 
	C449.938232,142.061386 453.390625,134.604965 451.395508,127.743477 
	C448.991669,119.476372 440.739899,114.908913 432.651398,117.368362 
	C424.100220,119.968498 420.283905,128.384857 423.766632,138.470856 
M367.469818,143.104919 
	C374.087128,147.568756 379.892822,147.835480 385.496918,143.933121 
	C390.581512,140.392502 393.052063,133.973022 391.552979,128.197021 
	C389.953461,122.034004 385.067902,117.625648 379.040710,116.906853 
	C372.530945,116.130508 366.585907,119.220055 363.720306,124.868645 
	C360.622528,130.974915 361.630676,136.598953 367.469818,143.104919 
z"/>
<path fill="#5C7A99" opacity="1.000000" stroke="none" 
	d="
M256.974396,430.191956 
	C256.972504,449.770905 256.970612,469.349823 256.493591,489.447845 
	C175.394394,489.977661 94.770256,490.006561 14.146296,489.906464 
	C11.857979,489.903625 9.406034,488.833405 7.328307,487.709961 
	C5.039235,486.472198 3.094660,484.597321 1.000005,483.000000 
	C1.000000,337.979095 1.000000,192.958206 1.253107,47.802292 
	C6.222757,40.675034 13.031948,39.608669 20.918142,39.870502 
	C34.226658,40.312366 47.562305,39.937092 61.361610,39.928253 
	C71.595657,39.935886 81.354645,39.920715 91.573822,39.942871 
	C101.652046,39.955059 111.270081,39.929920 121.363014,39.927788 
	C131.929413,39.935410 142.020905,39.920033 152.572662,39.942329 
	C162.317856,39.954823 171.602798,39.929638 181.362671,39.927223 
	C191.929321,39.934910 202.021011,39.919830 212.572937,39.942387 
	C227.669388,40.037838 242.305603,40.095650 256.941803,40.153465 
	C256.956512,59.733521 256.971222,79.313576 257.032928,99.447639 
	C257.079926,100.001648 257.046387,100.220650 256.581726,100.133995 
	C236.633041,100.032120 217.148880,99.971550 197.665024,100.021645 
	C188.530975,100.045135 181.911819,105.839096 181.860733,114.502533 
	C181.682068,144.810059 181.696091,175.119736 181.850922,205.427505 
	C181.892334,213.536102 188.048721,219.828430 196.113663,219.895798 
	C216.422974,220.065384 236.735550,219.843964 257.063538,219.888855 
	C257.080261,219.998444 256.974701,220.193359 256.974701,220.193359 
	C256.989532,229.432968 257.004364,238.672577 257.021667,248.463043 
	C257.024170,249.013885 256.969055,249.192245 256.586609,249.128815 
	C246.861984,250.595078 242.100708,255.966278 242.006302,265.166504 
	C241.956955,269.974731 241.913574,274.785858 242.019836,279.592255 
	C242.216263,288.477692 247.988693,294.296722 256.996460,294.896454 
	C257.023987,294.985748 257.037781,295.172089 257.037781,295.172089 
	C257.019775,304.746063 257.001740,314.320038 257.032837,324.447571 
	C257.081940,325.001099 257.047363,325.222229 256.582703,325.134949 
	C234.427429,325.091888 212.736771,325.136139 190.578094,325.113373 
	C168.749832,325.086578 147.389572,325.126801 125.561951,325.108521 
	C108.960289,325.035156 92.825569,324.943268 76.691910,325.035767 
	C67.751068,325.087036 61.142471,331.148834 61.081284,339.799133 
	C60.903625,364.914398 60.915531,390.032349 61.074154,415.147858 
	C61.126492,423.434357 67.409348,429.820862 75.639290,429.908936 
	C92.433937,430.088623 109.232727,429.880890 126.493103,429.893585 
	C148.319763,429.909515 169.683121,429.864594 191.508041,429.886292 
	C213.662292,429.894501 235.354996,429.836121 257.065674,429.887695 
	C257.083618,429.997681 256.974396,430.191956 256.974396,430.191956 
M122.097336,203.783447 
	C144.937988,194.293304 156.319473,171.115555 149.273529,148.440659 
	C142.412949,126.362282 119.950516,112.918541 97.644257,117.540573 
	C71.987442,122.856865 56.301529,147.896759 62.876747,173.040985 
	C69.537804,198.513489 95.573235,212.308487 122.097336,203.783447 
M70.086578,293.738861 
	C81.792252,297.340576 90.875435,290.800110 90.995911,278.648987 
	C91.043724,273.826904 91.104317,269.001068 90.975174,264.181885 
	C90.745110,255.596542 84.413101,249.148300 76.242424,249.010910 
	C67.884659,248.870392 61.253906,255.422089 61.025307,264.200195 
	C60.899799,269.019562 61.043148,273.845306 60.987312,278.667297 
	C60.911224,285.238678 63.529305,290.225525 70.086578,293.738861 
M151.262970,268.566315 
	C151.248398,266.899963 151.298462,265.230072 151.208252,263.567841 
	C150.777374,255.627136 145.037338,249.610184 137.392761,249.037674 
	C129.867569,248.474106 122.583160,253.687195 121.788116,261.478180 
	C121.051018,268.701385 121.084618,276.157623 122.009682,283.352997 
	C122.947876,290.650452 130.118484,295.449310 137.269440,294.963715 
	C144.747742,294.455872 150.659348,288.638489 151.147095,281.039368 
	C151.392181,277.220856 151.237228,273.376678 151.262970,268.566315 
M182.730255,285.276611 
	C186.171127,292.147339 191.604172,295.577118 198.035049,294.938263 
	C204.115372,294.334229 210.158829,290.093964 210.798141,284.080048 
	C211.648865,276.077179 211.767700,267.818176 210.763199,259.850433 
	C209.890686,252.929489 202.417221,248.464783 195.480026,249.046631 
	C188.660019,249.618683 182.432587,254.925522 182.069321,261.651123 
	C181.659424,269.240112 182.256256,276.883484 182.730255,285.276611 
z"/>
<path fill="#000000" opacity="0.000000" stroke="none" 
	d="
M180.887726,39.904457 
	C171.602798,39.929638 162.317856,39.954823 152.532608,39.544975 
	C150.875168,27.934978 144.310196,23.025011 133.822571,23.976118 
	C126.536766,24.636858 121.239571,30.975357 120.888107,39.904785 
	C111.270081,39.929920 101.652046,39.955059 91.535736,39.523151 
	C91.462830,34.139591 89.824158,30.135685 85.939003,26.974327 
	C80.888641,22.864840 75.027580,22.841074 69.635376,24.971891 
	C63.319496,27.467722 60.175571,32.798733 60.886543,39.905449 
	C47.562305,39.937092 34.226658,40.312366 20.918142,39.870502 
	C13.031948,39.608669 6.222757,40.675034 1.253107,47.333633 
	C1.000000,31.677773 1.000000,16.355545 1.000002,1.040527 
	C171.666672,1.047735 342.333344,1.047735 513.000000,1.047735 
	C513.000000,16.084541 513.000000,31.073612 513.000000,46.531345 
	C511.959686,46.146358 511.028076,45.081295 509.858124,44.479923 
	C506.733063,42.873596 503.509125,40.177139 500.318420,40.168602 
	C419.506470,39.952396 338.693756,40.026466 257.411499,40.101547 
	C242.305603,40.095650 227.669388,40.037838 212.535278,39.532127 
	C210.760147,35.626846 210.160614,31.671259 208.062531,28.817345 
	C203.887802,23.138683 197.350616,22.855640 191.294891,24.523445 
	C183.904816,26.558754 181.686218,32.954189 180.887726,39.904457 
z"/>
<path fill="#000000" opacity="0.000000" stroke="none" 
	d="
M1.000005,483.468658 
	C3.094660,484.597321 5.039235,486.472198 7.328307,487.709961 
	C9.406034,488.833405 11.857979,489.903625 14.146296,489.906464 
	C94.770256,490.006561 175.394394,489.977661 256.480255,489.906677 
	C259.270050,489.897552 261.598083,489.992950 263.926117,489.993317 
	C342.485931,490.005646 421.045868,489.962921 499.605438,490.105072 
	C505.584259,490.115906 508.664032,486.298981 512.646606,482.924011 
	C513.000000,492.992340 513.000000,502.984711 513.000000,512.957520 
	C342.333313,512.957520 171.666656,512.957520 1.000000,512.957520 
	C1.000000,503.255829 1.000000,493.596588 1.000005,483.468658 
z"/>
<path fill="#D8E0F7" opacity="1.000000" stroke="none" 
	d="
M257.027344,99.904144 
	C276.631622,99.870468 296.288452,99.939919 315.945343,99.995796 
	C326.100861,100.024666 332.462555,105.627983 332.540649,115.784126 
	C332.767456,145.274460 332.774994,174.768936 332.532501,204.259033 
	C332.449127,214.402710 326.058472,219.992294 315.887665,220.000519 
	C296.559570,220.016144 277.231476,220.023773 257.439026,220.114044 
	C256.974701,220.193359 257.080261,219.998444 257.054565,219.434387 
	C257.034698,179.320450 257.040558,139.770554 257.046387,100.220650 
	C257.046387,100.220650 257.079926,100.001648 257.027344,99.904144 
z"/>
<path fill="#A2BAFF" opacity="1.000000" stroke="none" 
	d="
M386.976746,325.167206 
	C404.108856,325.117493 421.242523,324.914276 438.372437,325.084778 
	C446.583405,325.166473 452.878113,331.564667 452.930084,339.848114 
	C453.087738,364.967773 453.099762,390.089874 452.923035,415.209320 
	C452.862030,423.881775 446.271637,429.920471 437.317932,429.968445 
	C420.848785,430.056610 404.378693,429.973755 387.446411,429.439575 
	C386.981445,394.333679 386.979095,359.750458 386.976746,325.167206 
z"/>
<path fill="#BECEFC" opacity="1.000000" stroke="none" 
	d="
M386.513702,325.101257 
	C386.979095,359.750458 386.981445,394.333679 386.980164,429.374878 
	C365.615814,429.876984 344.255035,429.921173 322.430389,429.437408 
	C321.964844,394.331482 321.963226,359.753479 321.961609,325.175476 
	C343.324615,325.128754 364.687653,325.082031 386.513702,325.101257 
z"/>
<path fill="#D9E1F8" opacity="1.000000" stroke="none" 
	d="
M321.500641,325.105835 
	C321.963226,359.753479 321.964844,394.331482 321.963928,429.367004 
	C300.608551,429.893921 279.255798,429.963318 257.438721,430.112305 
	C256.974396,430.191956 257.083618,429.997681 257.056030,429.433319 
	C257.034760,394.320038 257.041046,359.771149 257.047363,325.222229 
	C257.047363,325.222229 257.081940,325.001099 257.026184,324.904114 
	C278.326874,324.883453 299.683258,324.959808 321.500641,325.105835 
z"/>
<path fill="#FDC453" opacity="1.000000" stroke="none" 
	d="
M443.538605,293.874817 
	C432.019653,297.139862 423.129578,290.484802 423.004913,278.865082 
	C422.951355,273.874939 422.875427,268.879913 423.028870,263.893860 
	C423.289581,255.420914 429.869049,248.981140 438.036713,249.006668 
	C446.193604,249.032166 452.704254,255.476852 452.970276,263.980133 
	C453.121033,268.799835 452.938690,273.629028 453.018127,278.452118 
	C453.133484,285.456726 450.252594,290.618927 443.538605,293.874817 
z"/>
<path fill="#FCC353" opacity="1.000000" stroke="none" 
	d="
M312.294220,294.035950 
	C305.200989,290.971039 302.255341,285.645386 302.245941,278.488770 
	C302.239807,273.831696 302.118347,269.170013 302.281860,264.518555 
	C302.597504,255.541382 308.948486,249.040558 317.240936,249.003815 
	C325.831635,248.965744 332.073456,255.515091 332.234467,264.854767 
	C332.320465,269.842896 332.367981,274.837738 332.213409,279.822754 
	C331.879669,290.585785 323.210419,296.883881 312.294220,294.035950 
z"/>
<path fill="#FCC353" opacity="1.000000" stroke="none" 
	d="
M365.787628,289.042053 
	C364.612091,285.453979 363.143738,282.203186 362.865448,278.853516 
	C362.426422,273.569122 362.573059,268.206818 362.859589,262.898438 
	C363.266113,255.366547 369.298065,249.511414 376.721191,249.026077 
	C383.902924,248.556534 391.094116,253.308197 391.958282,260.579010 
	C392.850769,268.087860 392.717010,275.839478 391.981995,283.382568 
	C391.401855,289.336670 386.959229,292.998871 381.181610,294.483185 
	C375.102509,296.044952 370.084015,293.983795 365.787628,289.042053 
z"/>
<path fill="#D0515A" opacity="1.000000" stroke="none" 
	d="
M382.360870,205.604218 
	C375.199982,207.905212 369.528717,206.090836 365.125061,200.609604 
	C361.295685,195.843201 361.002594,189.595169 364.044983,184.249329 
	C367.080719,178.915283 372.938721,176.092239 379.236145,176.928558 
	C385.555023,177.767731 390.709442,182.854889 391.826324,189.354492 
	C392.941864,195.845840 389.660980,201.643890 382.360870,205.604218 
z"/>
<path fill="#D0515A" opacity="1.000000" stroke="none" 
	d="
M441.164124,177.306305 
	C449.218353,180.798248 453.115997,187.181152 451.789307,194.191528 
	C450.478271,201.119308 444.498077,206.359344 437.536591,206.680191 
	C430.727783,206.994019 424.425720,202.122711 422.478210,195.215485 
	C419.919739,186.141541 428.031738,174.340195 441.164124,177.306305 
z"/>
<path fill="#D0515A" opacity="1.000000" stroke="none" 
	d="
M423.576721,138.135468 
	C420.283905,128.384857 424.100220,119.968498 432.651398,117.368362 
	C440.739899,114.908913 448.991669,119.476372 451.395508,127.743477 
	C453.390625,134.604965 449.938232,142.061386 443.327271,145.169098 
	C436.023071,148.602692 428.739227,146.108429 423.576721,138.135468 
z"/>
<path fill="#D0515A" opacity="1.000000" stroke="none" 
	d="
M367.187195,142.868607 
	C361.630676,136.598953 360.622528,130.974915 363.720306,124.868645 
	C366.585907,119.220055 372.530945,116.130508 379.040710,116.906853 
	C385.067902,117.625648 389.953461,122.034004 391.552979,128.197021 
	C393.052063,133.973022 390.581512,140.392502 385.496918,143.933121 
	C379.892822,147.835480 374.087128,147.568756 367.187195,142.868607 
z"/>
<path fill="#FDC453" opacity="1.000000" stroke="none" 
	d="
M257.031128,248.920807 
	C266.827759,249.837311 271.978851,255.441650 272.001526,265.123749 
	C272.012421,269.772430 272.016571,274.421204 272.000610,279.069885 
	C271.968872,288.321442 267.043304,293.855255 257.425354,295.103210 
	C257.037781,295.172089 257.023987,294.985748 257.009399,294.439880 
	C256.986206,278.993439 256.977631,264.092834 256.969055,249.192245 
	C256.969055,249.192245 257.024170,249.013885 257.031128,248.920807 
z"/>
<path fill="#F5F5F5" opacity="1.000000" stroke="none" 
	d="
M256.581726,100.133995 
	C257.040558,139.770554 257.034698,179.320450 257.037842,219.324814 
	C236.735550,219.843964 216.422974,220.065384 196.113663,219.895798 
	C188.048721,219.828430 181.892334,213.536102 181.850922,205.427505 
	C181.696091,175.119736 181.682068,144.810059 181.860733,114.502533 
	C181.911819,105.839096 188.530975,100.045135 197.665024,100.021645 
	C217.148880,99.971550 236.633041,100.032120 256.581726,100.133995 
z"/>
<path fill="#F5F5F5" opacity="1.000000" stroke="none" 
	d="
M256.582703,325.134949 
	C257.041046,359.771149 257.034760,394.320038 257.038086,429.323334 
	C235.354996,429.836121 213.662292,429.894501 191.505554,429.429199 
	C191.043045,394.330475 191.044586,359.755402 191.046127,325.180359 
	C212.736771,325.136139 234.427429,325.091888 256.582703,325.134949 
z"/>
<path fill="#D9E1F8" opacity="1.000000" stroke="none" 
	d="
M190.578094,325.113373 
	C191.044586,359.755402 191.043045,394.330475 191.044006,429.362610 
	C169.683121,429.864594 148.319763,429.909515 126.488220,429.435852 
	C126.023148,394.333893 126.026237,359.750458 126.029327,325.167023 
	C147.389572,325.126801 168.749832,325.086578 190.578094,325.113373 
z"/>
<path fill="#BECEFC" opacity="1.000000" stroke="none" 
	d="
M125.561951,325.108521 
	C126.026237,359.750458 126.023148,394.333893 126.024933,429.375061 
	C109.232727,429.880890 92.433937,430.088623 75.639290,429.908936 
	C67.409348,429.820862 61.126492,423.434357 61.074154,415.147858 
	C60.915531,390.032349 60.903625,364.914398 61.081284,339.799133 
	C61.142471,331.148834 67.751068,325.087036 76.691910,325.035767 
	C92.825569,324.943268 108.960289,325.035156 125.561951,325.108521 
z"/>
<path fill="#FE6A73" opacity="1.000000" stroke="none" 
	d="
M121.720810,203.901855 
	C95.573235,212.308487 69.537804,198.513489 62.876747,173.040985 
	C56.301529,147.896759 71.987442,122.856865 97.644257,117.540573 
	C119.950516,112.918541 142.412949,126.362282 149.273529,148.440659 
	C156.319473,171.115555 144.937988,194.293304 121.720810,203.901855 
z"/>
<path fill="#FDE565" opacity="1.000000" stroke="none" 
	d="
M69.746353,293.552917 
	C63.529305,290.225525 60.911224,285.238678 60.987312,278.667297 
	C61.043148,273.845306 60.899799,269.019562 61.025307,264.200195 
	C61.253906,255.422089 67.884659,248.870392 76.242424,249.010910 
	C84.413101,249.148300 90.745110,255.596542 90.975174,264.181885 
	C91.104317,269.001068 91.043724,273.826904 90.995911,278.648987 
	C90.875435,290.800110 81.792252,297.340576 69.746353,293.552917 
z"/>
<path fill="#FDE465" opacity="1.000000" stroke="none" 
	d="
M151.263077,269.055237 
	C151.237228,273.376678 151.392181,277.220856 151.147095,281.039368 
	C150.659348,288.638489 144.747742,294.455872 137.269440,294.963715 
	C130.118484,295.449310 122.947876,290.650452 122.009682,283.352997 
	C121.084618,276.157623 121.051018,268.701385 121.788116,261.478180 
	C122.583160,253.687195 129.867569,248.474106 137.392761,249.037674 
	C145.037338,249.610184 150.777374,255.627136 151.208252,263.567841 
	C151.298462,265.230072 151.248398,266.899963 151.263077,269.055237 
z"/>
<path fill="#FDE465" opacity="1.000000" stroke="none" 
	d="
M182.572754,284.889893 
	C182.256256,276.883484 181.659424,269.240112 182.069321,261.651123 
	C182.432587,254.925522 188.660019,249.618683 195.480026,249.046631 
	C202.417221,248.464783 209.890686,252.929489 210.763199,259.850433 
	C211.767700,267.818176 211.648865,276.077179 210.798141,284.080048 
	C210.158829,290.093964 204.115372,294.334229 198.035049,294.938263 
	C191.604172,295.577118 186.171127,292.147339 182.572754,284.889893 
z"/>
<path fill="#FDE565" opacity="1.000000" stroke="none" 
	d="
M256.586578,249.128815 
	C256.977631,264.092834 256.986206,278.993439 256.981873,294.350586 
	C247.988693,294.296722 242.216263,288.477692 242.019836,279.592255 
	C241.913574,274.785858 241.956955,269.974731 242.006302,265.166504 
	C242.100708,255.966278 246.861984,250.595078 256.586578,249.128815 
z"/>
<path fill="#335373" opacity="1.000000" stroke="none" 
	d="
M121.363014,39.927784 
	C121.239571,30.975357 126.536766,24.636858 133.822571,23.976118 
	C144.310196,23.025011 150.875168,27.934978 152.072342,39.507301 
	C142.020905,39.920033 131.929413,39.935410 121.363014,39.927784 
z"/>
<path fill="#335373" opacity="1.000000" stroke="none" 
	d="
M181.362671,39.927223 
	C181.686218,32.954189 183.904816,26.558754 191.294891,24.523445 
	C197.350616,22.855640 203.887802,23.138683 208.062531,28.817345 
	C210.160614,31.671259 210.760147,35.626846 212.075027,39.494492 
	C202.021011,39.919830 191.929321,39.934910 181.362671,39.927223 
z"/>
<path fill="#335373" opacity="1.000000" stroke="none" 
	d="
M61.361610,39.928253 
	C60.175571,32.798733 63.319496,27.467722 69.635376,24.971891 
	C75.027580,22.841074 80.888641,22.864840 85.939003,26.974327 
	C89.824158,30.135685 91.462830,34.139591 91.075531,39.485825 
	C81.354645,39.920715 71.595657,39.935886 61.361610,39.928253 
z"/>
</svg>