<svg version="1.1" id="Layer_1" xmlns="http://www.w3.org/2000/svg" xmlns:xlink="http://www.w3.org/1999/xlink" x="0px" y="0px"
	 width="100%" viewBox="0 0 512 512" enable-background="new 0 0 512 512" xml:space="preserve">
<path fill="#000000" opacity="0.000000" stroke="none" 
	d="
M224.000000,0.999999 
	C320.260376,1.000000 416.520752,1.000000 513.000000,1.000000 
	C513.000000,97.020782 513.000000,193.041733 512.671387,289.609924 
	C507.978943,294.187988 503.640045,298.246124 499.246643,302.244385 
	C487.153107,313.250275 473.517426,321.907135 459.080780,329.554169 
	C435.104187,342.254456 409.493805,349.625488 382.699554,351.695923 
	C365.359985,353.035797 347.823364,352.589722 330.423248,349.192749 
	C312.234467,345.641785 294.681610,340.523132 278.042236,332.470917 
	C262.201263,324.805084 246.953705,316.021027 234.285904,303.616974 
	C223.240082,292.801086 211.981537,282.040894 202.248520,270.090179 
	C191.950012,257.445099 184.375336,242.892960 177.866409,227.797455 
	C169.047852,207.345459 163.663193,186.017670 162.246323,163.973114 
	C161.139145,146.747162 161.586029,129.420151 164.858551,112.201172 
	C170.057449,84.846336 179.699615,59.308411 195.389465,36.421268 
	C203.944839,23.941345 214.401062,12.764522 224.000000,0.999999 
M365.481323,85.999817 
	C363.903290,85.666832 362.338226,85.243843 360.745270,85.014748 
	C344.153290,82.628494 332.330750,73.767914 327.165894,57.870136 
	C323.746979,47.346344 322.184052,36.202057 320.054626,25.283991 
	C318.931671,19.526390 315.058105,15.205912 310.045471,15.000150 
	C301.837006,14.663201 297.387390,17.485254 296.015503,24.106718 
	C293.951324,34.069408 292.328888,44.135658 289.921600,54.012363 
	C286.460083,68.214417 277.808441,78.482819 263.776917,82.798447 
	C253.175339,86.059143 242.086395,87.777550 231.167969,89.949036 
	C225.152771,91.145348 220.608963,95.620461 220.339325,101.295853 
	C220.061127,107.151878 224.385529,112.814392 230.244385,113.956154 
	C239.290558,115.719055 248.422913,117.074669 257.416321,119.065582 
	C272.917267,122.497070 284.440460,131.040268 288.874725,146.790497 
	C291.884613,157.481476 293.767303,168.497894 295.953217,179.408997 
	C296.889374,184.081772 300.847504,188.580109 305.035156,188.999329 
	C312.577881,189.754410 317.413910,187.394379 318.916626,181.257874 
	C321.256073,171.704391 322.796478,161.957184 325.052521,152.380920 
	C327.929688,140.168365 333.599487,130.051926 345.415588,123.839615 
	C357.652863,117.405884 371.293579,117.406868 384.197876,114.123543 
	C390.728180,112.461983 394.509155,109.031593 395.072296,102.955940 
	C395.682343,96.374382 392.366333,91.491150 385.319366,90.003700 
	C378.999542,88.669731 372.679474,87.336685 365.481323,85.999817 
M338.821075,246.250916 
	C341.181763,247.501266 343.413879,249.255493 345.929779,249.897507 
	C351.239105,251.252380 356.764557,251.756561 362.079437,253.094193 
	C372.352509,255.679688 379.748352,261.480927 382.051117,272.415619 
	C383.377747,278.715240 384.564301,285.047577 386.048828,291.309479 
	C386.914886,294.962585 388.593018,297.973877 393.178986,298.045074 
	C397.710999,298.115448 401.213928,297.271118 402.045746,291.926270 
	C402.839233,286.827789 404.064301,281.798157 404.990845,276.718414 
	C406.893585,266.286743 412.069031,258.089569 422.258667,254.484055 
	C428.742798,252.189713 435.748749,251.305038 442.567932,250.043808 
	C447.764923,249.082626 450.989380,246.353973 450.945343,241.817429 
	C450.898438,236.985138 448.093658,234.630554 443.348694,233.929276 
	C438.409332,233.199265 433.489655,232.190811 428.651642,230.951675 
	C419.670471,228.651398 411.094635,225.396774 408.016205,215.449326 
	C405.648865,207.799667 403.843933,199.964890 402.057373,192.151062 
	C401.106415,187.991837 399.019806,185.222092 394.676544,185.065033 
	C390.094910,184.899353 387.002167,187.213638 386.077087,191.851669 
	C385.285400,195.820755 384.568970,199.812073 384.021301,203.821136 
	C382.662994,213.764755 379.111359,222.893616 369.776764,227.358963 
	C363.247467,230.482346 355.640228,231.595474 348.387634,232.903473 
	C338.846283,234.624222 337.569092,235.850647 338.821075,246.250916 
z"/>
<path fill="#FFD073" opacity="1.000000" stroke="none" 
	d="
M223.536819,0.999999 
	C214.401062,12.764522 203.944839,23.941345 195.389465,36.421268 
	C179.699615,59.308411 170.057449,84.846336 164.858551,112.201172 
	C161.586029,129.420151 161.139145,146.747162 162.246323,163.973114 
	C163.663193,186.017670 169.047852,207.345459 177.866409,227.797455 
	C184.375336,242.892960 191.950012,257.445099 202.248520,270.090179 
	C211.981537,282.040894 223.240082,292.801086 234.285904,303.616974 
	C246.953705,316.021027 262.201263,324.805084 278.042236,332.470917 
	C294.681610,340.523132 312.234467,345.641785 330.423248,349.192749 
	C347.823364,352.589722 365.359985,353.035797 382.699554,351.695923 
	C409.493805,349.625488 435.104187,342.254456 459.080780,329.554169 
	C473.517426,321.907135 487.153107,313.250275 499.246643,302.244385 
	C503.640045,298.246124 507.978943,294.187988 512.671387,290.078552 
	C513.000000,294.024536 513.000000,298.049103 512.667969,302.212311 
	C511.309479,306.031891 510.122467,309.676605 509.282684,313.399658 
	C504.026550,336.701477 495.551178,358.708099 484.149170,379.740112 
	C473.746765,398.928284 461.306091,416.612488 446.100616,432.097717 
	C434.951447,443.451965 422.859222,454.014404 410.340302,463.851807 
	C397.760742,473.736847 383.957947,481.987610 368.761353,488.167725 
	C367.987549,488.488495 367.509766,488.792755 367.024841,489.068054 
	C367.017700,489.039093 367.072723,489.062592 366.620667,489.036621 
	C364.338104,489.050201 362.479431,488.896759 360.681396,489.159058 
	C342.205475,491.854584 323.727142,492.681274 305.041016,491.196381 
	C281.018280,489.287506 257.720490,484.582855 235.111023,476.245148 
	C179.723358,455.819824 136.395203,420.392517 105.150253,370.535797 
	C72.972389,319.190430 61.243366,262.910339 68.247398,202.926819 
	C72.324326,168.011429 83.604164,135.243301 101.536476,104.883186 
	C122.996773,68.550041 151.457138,39.018635 187.367874,16.779898 
	C195.122345,11.977735 203.087692,7.516096 211.131226,2.540000 
	C211.204361,1.788264 211.102188,1.394131 211.000000,0.999999 
	C215.024551,1.000000 219.049088,1.000000 223.536819,0.999999 
M137.698990,292.221283 
	C147.751770,286.359039 155.289444,278.108002 160.512238,267.778381 
	C161.344177,266.132935 162.113297,263.446838 161.346909,262.216125 
	C159.837311,259.791901 157.545807,257.058380 155.006073,256.251038 
	C150.770859,254.904678 147.866119,257.934662 145.972458,261.602844 
	C135.376480,282.128326 109.049149,291.071198 87.046173,281.065216 
	C81.706352,278.636902 77.235558,280.032440 75.483650,284.134644 
	C73.513916,288.746918 75.299347,292.937927 80.659592,295.341705 
	C99.901649,303.970825 118.732735,302.998413 137.698990,292.221283 
M126.428368,220.994629 
	C123.236542,218.400665 119.404259,218.346161 117.006783,221.110596 
	C115.145393,223.256897 114.243156,227.025650 114.449760,229.965347 
	C114.683342,233.288971 116.377441,236.617462 117.902481,239.714340 
	C119.625877,243.214005 122.753746,244.773163 126.599648,243.571808 
	C130.263809,242.427200 132.934677,239.754608 131.990845,235.792084 
	C130.827637,230.908508 128.700745,226.254471 126.428368,220.994629 
M88.980263,249.593872 
	C87.713448,245.823517 86.750275,241.913635 85.098953,238.319962 
	C83.251595,234.299652 78.721710,232.745499 74.993958,234.639847 
	C71.143433,236.596588 69.497635,239.799377 70.892342,244.151123 
	C71.755211,246.843399 72.711082,249.506805 73.529961,252.212006 
	C74.822083,256.480560 77.567390,258.637817 82.077141,258.074921 
	C86.517525,257.520721 88.834152,254.901901 88.980263,249.593872 
z"/>
<path fill="#F29045" opacity="1.000000" stroke="none" 
	d="
M210.955902,2.897603 
	C203.087692,7.516096 195.122345,11.977735 187.367874,16.779898 
	C151.457138,39.018635 122.996773,68.550041 101.536476,104.883186 
	C83.604164,135.243301 72.324326,168.011429 68.247398,202.926819 
	C61.243366,262.910339 72.972389,319.190430 105.150253,370.535797 
	C136.395203,420.392517 179.723358,455.819824 235.111023,476.245148 
	C257.720490,484.582855 281.018280,489.287506 305.041016,491.196381 
	C323.727142,492.681274 342.205475,491.854584 360.681396,489.159058 
	C362.479431,488.896759 364.338104,489.050201 366.473206,489.368408 
	C364.602814,490.809662 362.502838,492.091736 360.241241,492.946014 
	C338.001099,501.346832 315.563751,509.020599 291.641357,511.110840 
	C291.043762,511.163025 290.544891,512.344971 290.000000,513.000000 
	C268.979095,513.000000 247.958206,513.000000 226.735596,512.624390 
	C221.519226,511.179749 216.544418,509.844208 211.483047,509.087738 
	C189.877518,505.858551 169.395157,498.884583 149.676651,489.842133 
	C131.173019,481.356750 114.138916,470.402161 98.004662,457.824707 
	C81.117188,444.660065 66.462837,429.457855 53.393093,412.718445 
	C40.579231,396.306854 30.199474,378.351227 21.946106,359.164795 
	C12.421495,337.023071 5.725784,314.152039 2.902622,290.176453 
	C2.809691,289.387238 1.658103,288.722656 1.000002,288.000000 
	C1.000000,266.645782 1.000000,245.291550 1.387034,223.698105 
	C2.504360,220.356766 3.474951,217.289154 3.926243,214.146957 
	C7.030702,192.531540 13.373040,171.803299 22.095377,151.905396 
	C33.135208,126.720657 47.813904,103.650284 66.323402,83.273895 
	C79.740746,68.503273 94.710320,55.340343 111.161827,43.925259 
	C129.641739,31.102743 149.347717,20.505909 170.610107,13.315425 
	C183.732330,8.877765 197.485825,6.306687 210.955902,2.897603 
z"/>
<path fill="#000000" opacity="0.000000" stroke="none" 
	d="
M1.000002,288.468658 
	C1.658103,288.722656 2.809691,289.387238 2.902622,290.176453 
	C5.725784,314.152039 12.421495,337.023071 21.946106,359.164795 
	C30.199474,378.351227 40.579231,396.306854 53.393093,412.718445 
	C66.462837,429.457855 81.117188,444.660065 98.004662,457.824707 
	C114.138916,470.402161 131.173019,481.356750 149.676651,489.842133 
	C169.395157,498.884583 189.877518,505.858551 211.483047,509.087738 
	C216.544418,509.844208 221.519226,511.179749 226.266937,512.624390 
	C151.072968,513.000000 76.145927,513.000000 1.000000,513.000000 
	C1.000000,438.312592 1.000000,363.624939 1.000002,288.468658 
z"/>
<path fill="#000000" opacity="0.000000" stroke="none" 
	d="
M290.468658,513.000000 
	C290.544891,512.344971 291.043762,511.163025 291.641357,511.110840 
	C315.563751,509.020599 338.001099,501.346832 360.241241,492.946014 
	C362.502838,492.091736 364.602814,490.809662 366.925293,489.394348 
	C367.072723,489.062592 367.017700,489.039093 367.333954,489.039246 
	C368.119293,488.743347 368.588348,488.447266 369.057434,488.151184 
	C383.957947,481.987610 397.760742,473.736847 410.340302,463.851807 
	C422.859222,454.014404 434.951447,443.451965 446.100616,432.097717 
	C461.306091,416.612488 473.746765,398.928284 484.149170,379.740112 
	C495.551178,358.708099 504.026550,336.701477 509.282684,313.399658 
	C510.122467,309.676605 511.309479,306.031891 512.667969,302.675476 
	C513.000000,372.929230 513.000000,442.858429 513.000000,513.000000 
	C438.979248,513.000000 364.958282,513.000000 290.468658,513.000000 
z"/>
<path fill="#000000" opacity="0.000000" stroke="none" 
	d="
M211.131226,2.539999 
	C197.485825,6.306687 183.732330,8.877765 170.610107,13.315425 
	C149.347717,20.505909 129.641739,31.102743 111.161827,43.925259 
	C94.710320,55.340343 79.740746,68.503273 66.323402,83.273895 
	C47.813904,103.650284 33.135208,126.720657 22.095377,151.905396 
	C13.373040,171.803299 7.030702,192.531540 3.926243,214.146957 
	C3.474951,217.289154 2.504360,220.356766 1.387034,223.229446 
	C1.000000,149.074982 1.000000,75.149971 1.000000,1.000000 
	C70.687401,1.000000 140.375046,1.000000 210.531342,0.999999 
	C211.102188,1.394131 211.204361,1.788264 211.131226,2.539999 
z"/>
<path fill="#FFEE8C" opacity="1.000000" stroke="none" 
	d="
M365.920410,86.001526 
	C372.679474,87.336685 378.999542,88.669731 385.319366,90.003700 
	C392.366333,91.491150 395.682343,96.374382 395.072296,102.955940 
	C394.509155,109.031593 390.728180,112.461983 384.197876,114.123543 
	C371.293579,117.406868 357.652863,117.405884 345.415588,123.839615 
	C333.599487,130.051926 327.929688,140.168365 325.052521,152.380920 
	C322.796478,161.957184 321.256073,171.704391 318.916626,181.257874 
	C317.413910,187.394379 312.577881,189.754410 305.035156,188.999329 
	C300.847504,188.580109 296.889374,184.081772 295.953217,179.408997 
	C293.767303,168.497894 291.884613,157.481476 288.874725,146.790497 
	C284.440460,131.040268 272.917267,122.497070 257.416321,119.065582 
	C248.422913,117.074669 239.290558,115.719055 230.244385,113.956154 
	C224.385529,112.814392 220.061127,107.151878 220.339325,101.295853 
	C220.608963,95.620461 225.152771,91.145348 231.167969,89.949036 
	C242.086395,87.777550 253.175339,86.059143 263.776917,82.798447 
	C277.808441,78.482819 286.460083,68.214417 289.921600,54.012363 
	C292.328888,44.135658 293.951324,34.069408 296.015503,24.106718 
	C297.387390,17.485254 301.837006,14.663201 310.045471,15.000150 
	C315.058105,15.205912 318.931671,19.526390 320.054626,25.283991 
	C322.184052,36.202057 323.746979,47.346344 327.165894,57.870136 
	C332.330750,73.767914 344.153290,82.628494 360.745270,85.014748 
	C362.338226,85.243843 363.903290,85.666832 365.920410,86.001526 
z"/>
<path fill="#FFEE8C" opacity="1.000000" stroke="none" 
	d="
M338.514587,245.971375 
	C337.569092,235.850647 338.846283,234.624222 348.387634,232.903473 
	C355.640228,231.595474 363.247467,230.482346 369.776764,227.358963 
	C379.111359,222.893616 382.662994,213.764755 384.021301,203.821136 
	C384.568970,199.812073 385.285400,195.820755 386.077087,191.851669 
	C387.002167,187.213638 390.094910,184.899353 394.676544,185.065033 
	C399.019806,185.222092 401.106415,187.991837 402.057373,192.151062 
	C403.843933,199.964890 405.648865,207.799667 408.016205,215.449326 
	C411.094635,225.396774 419.670471,228.651398 428.651642,230.951675 
	C433.489655,232.190811 438.409332,233.199265 443.348694,233.929276 
	C448.093658,234.630554 450.898438,236.985138 450.945343,241.817429 
	C450.989380,246.353973 447.764923,249.082626 442.567932,250.043808 
	C435.748749,251.305038 428.742798,252.189713 422.258667,254.484055 
	C412.069031,258.089569 406.893585,266.286743 404.990845,276.718414 
	C404.064301,281.798157 402.839233,286.827789 402.045746,291.926270 
	C401.213928,297.271118 397.710999,298.115448 393.178986,298.045074 
	C388.593018,297.973877 386.914886,294.962585 386.048828,291.309479 
	C384.564301,285.047577 383.377747,278.715240 382.051117,272.415619 
	C379.748352,261.480927 372.352509,255.679688 362.079437,253.094193 
	C356.764557,251.756561 351.239105,251.252380 345.929779,249.897507 
	C343.413879,249.255493 341.181763,247.501266 338.514587,245.971375 
z"/>
<path fill="#CD9337" opacity="1.000000" stroke="none" 
	d="
M137.391556,292.420685 
	C118.732735,302.998413 99.901649,303.970825 80.659592,295.341705 
	C75.299347,292.937927 73.513916,288.746918 75.483650,284.134644 
	C77.235558,280.032440 81.706352,278.636902 87.046173,281.065216 
	C109.049149,291.071198 135.376480,282.128326 145.972458,261.602844 
	C147.866119,257.934662 150.770859,254.904678 155.006073,256.251038 
	C157.545807,257.058380 159.837311,259.791901 161.346909,262.216125 
	C162.113297,263.446838 161.344177,266.132935 160.512238,267.778381 
	C155.289444,278.108002 147.751770,286.359039 137.391556,292.420685 
z"/>
<path fill="#CD9337" opacity="1.000000" stroke="none" 
	d="
M126.709343,221.247925 
	C128.700745,226.254471 130.827637,230.908508 131.990845,235.792084 
	C132.934677,239.754608 130.263809,242.427200 126.599648,243.571808 
	C122.753746,244.773163 119.625877,243.214005 117.902481,239.714340 
	C116.377441,236.617462 114.683342,233.288971 114.449760,229.965347 
	C114.243156,227.025650 115.145393,223.256897 117.006783,221.110596 
	C119.404259,218.346161 123.236542,218.400665 126.709343,221.247925 
z"/>
<path fill="#CD9337" opacity="1.000000" stroke="none" 
	d="
M88.988846,250.002747 
	C88.834152,254.901901 86.517525,257.520721 82.077141,258.074921 
	C77.567390,258.637817 74.822083,256.480560 73.529961,252.212006 
	C72.711082,249.506805 71.755211,246.843399 70.892342,244.151123 
	C69.497635,239.799377 71.143433,236.596588 74.993958,234.639847 
	C78.721710,232.745499 83.251595,234.299652 85.098953,238.319962 
	C86.750275,241.913635 87.713448,245.823517 88.988846,250.002747 
z"/>
<path fill="#F29045" opacity="1.000000" stroke="none" 
	d="
M368.761353,488.167725 
	C368.588348,488.447266 368.119293,488.743347 367.341125,489.068207 
	C367.509766,488.792755 367.987549,488.488495 368.761353,488.167725 
z"/>
</svg>