<svg version="1.1" id="Layer_1" xmlns="http://www.w3.org/2000/svg" xmlns:xlink="http://www.w3.org/1999/xlink" x="0px" y="0px"
	 width="100%" viewBox="0 0 512 512" enable-background="new 0 0 512 512" xml:space="preserve">
<path fill="#F0E6DC" opacity="1.000000" stroke="none" 
	d="
M1.000000,419.000000 
	C1.000000,282.312439 1.000000,145.624878 1.275119,8.781801 
	C3.700159,6.084191 5.850079,3.542095 8.000000,1.000000 
	C37.354229,1.000000 66.708458,1.000000 96.531219,1.468657 
	C96.999779,75.602646 96.993767,149.267990 97.006378,222.933319 
	C97.008247,233.873352 103.042267,239.844162 114.024628,239.927017 
	C119.019493,239.964706 124.014000,240.050858 129.006042,240.576477 
	C129.009293,300.351532 129.015137,359.665161 129.011734,418.988129 
	C129.002472,418.997467 128.985962,419.014648 128.518784,419.008972 
	C85.701073,419.002228 43.350536,419.001099 1.000000,419.000000 
z"/>
<path fill="#E6D7CD" opacity="1.000000" stroke="none" 
	d="
M417.000000,1.000000 
	C446.354218,1.000000 475.708466,1.000000 505.222351,1.278368 
	C507.921326,3.704493 510.460663,5.852252 513.000000,8.000006 
	C513.000000,144.687561 513.000000,281.375122 512.531372,418.531616 
	C469.713989,419.005890 427.365326,419.011261 385.008240,419.008148 
	C384.999847,418.999664 384.981506,418.981110 384.986694,418.513672 
	C384.991699,358.735596 384.991547,299.424988 385.453461,240.028473 
	C390.081970,239.935699 394.248444,239.925812 398.414886,239.922485 
	C411.481781,239.912033 416.998566,234.449966 416.998993,221.492767 
	C417.001465,147.995178 417.000092,74.497589 417.000000,1.000000 
z"/>
<path fill="#FAF5EB" opacity="1.000000" stroke="none" 
	d="
M129.020996,418.978790 
	C129.015137,359.665161 129.009293,300.351532 129.467194,240.491669 
	C134.097198,239.938065 138.263428,239.927414 142.429657,239.923981 
	C155.481613,239.913239 160.998611,234.442200 160.999023,221.480743 
	C161.001358,147.987167 161.000061,74.493584 161.000000,1.000000 
	C182.020889,1.000000 203.041794,1.000000 224.531250,1.468657 
	C224.999832,8.259901 224.999817,14.582487 224.999817,20.905073 
	C224.999832,88.290672 224.992477,155.676270 225.007446,223.061859 
	C225.009827,233.708908 231.070297,239.845688 241.603226,239.909927 
	C246.758469,239.941360 251.914505,239.839615 257.072479,239.886383 
	C257.074768,239.974625 256.966614,240.114166 256.976624,240.575562 
	C256.984192,300.350922 256.981720,359.664856 256.513000,418.985718 
	C213.704819,418.988037 171.362900,418.983398 129.020996,418.978790 
z"/>
<path fill="#F0E6DC" opacity="1.000000" stroke="none" 
	d="
M256.979248,418.978790 
	C256.981720,359.664856 256.984192,300.350922 257.443359,240.516739 
	C262.562775,239.992416 267.225464,239.991302 271.888153,239.983627 
	C283.205841,239.965012 288.998779,234.156311 288.999084,222.810944 
	C289.001007,148.873962 289.000031,74.936981 289.000000,1.000000 
	C310.020905,1.000000 331.041779,1.000000 352.531250,1.468657 
	C352.999817,75.599976 352.993683,149.262650 353.006531,222.925308 
	C353.008453,233.872910 359.036774,239.845215 370.008118,239.926437 
	C375.002716,239.963394 379.996979,240.050171 384.991394,240.114349 
	C384.991547,299.424988 384.991699,358.735596 384.520172,418.519867 
	C341.703857,419.000549 299.359253,419.007599 257.006226,419.006104 
	C256.997772,418.997589 256.979248,418.978790 256.979248,418.978790 
z"/>
<path fill="#003034" opacity="1.000000" stroke="none" 
	d="
M160.531342,1.000000 
	C161.000061,74.493584 161.001358,147.987167 160.999023,221.480743 
	C160.998611,234.442200 155.481613,239.913239 142.429657,239.923981 
	C138.263428,239.927414 134.097198,239.938065 129.469818,240.030212 
	C124.014000,240.050858 119.019493,239.964706 114.024628,239.927017 
	C103.042267,239.844162 97.008247,233.873352 97.006378,222.933319 
	C96.993767,149.267990 96.999779,75.602646 96.999878,1.468657 
	C118.020897,1.000000 139.041794,1.000000 160.531342,1.000000 
z"/>
<path fill="#0A0A0A" opacity="1.000000" stroke="none" 
	d="
M385.453461,240.028473 
	C379.996979,240.050171 375.002716,239.963394 370.008118,239.926437 
	C359.036774,239.845215 353.008453,233.872910 353.006531,222.925308 
	C352.993683,149.262650 352.999817,75.599976 352.999908,1.468657 
	C374.020905,1.000000 395.041779,1.000000 416.531342,1.000000 
	C417.000092,74.497589 417.001465,147.995178 416.998993,221.492767 
	C416.998566,234.449966 411.481781,239.912033 398.414886,239.922485 
	C394.248444,239.925812 390.081970,239.935699 385.453461,240.028473 
z"/>
<path fill="#F0E6DC" opacity="1.000000" stroke="none" 
	d="
M129.011734,418.988129 
	C171.362900,418.983398 213.704819,418.988037 256.513000,418.985718 
	C256.979248,418.978790 256.997772,418.997589 257.000916,419.473083 
	C257.002747,450.965729 257.001373,481.982849 257.000000,513.000000 
	C214.645767,513.000000 172.291550,513.000000 129.468658,512.531372 
	C128.995316,481.046661 128.990646,450.030670 128.985962,419.014648 
	C128.985962,419.014648 129.002472,418.997467 129.011734,418.988129 
z"/>
<path fill="#E6D7CD" opacity="1.000000" stroke="none" 
	d="
M257.468658,513.000000 
	C257.001373,481.982849 257.002747,450.965729 257.009369,419.481628 
	C299.359253,419.007599 341.703857,419.000549 384.514984,418.987305 
	C384.981506,418.981110 384.999847,418.999664 385.002319,419.474854 
	C385.003174,450.966705 385.001587,481.983337 385.000000,513.000000 
	C342.645782,513.000000 300.291534,513.000000 257.468658,513.000000 
z"/>
<path fill="#E6D7CD" opacity="1.000000" stroke="none" 
	d="
M128.518784,419.008972 
	C128.990646,450.030670 128.995316,481.046661 129.000000,512.531372 
	C88.979103,513.000000 48.958210,513.000000 8.782162,512.724243 
	C6.084667,510.298950 3.542327,508.149475 0.999994,506.000000 
	C1.000000,477.312439 1.000000,448.624878 1.000000,419.468658 
	C43.350536,419.001099 85.701073,419.002228 128.518784,419.008972 
z"/>
<path fill="#DCC8BE" opacity="1.000000" stroke="none" 
	d="
M385.468658,513.000000 
	C385.001587,481.983337 385.003174,450.966705 385.010681,419.483337 
	C427.365326,419.011261 469.713989,419.005890 512.531372,419.000244 
	C513.000000,447.687561 513.000000,476.375122 512.721497,505.223816 
	C510.295319,507.923309 508.147644,510.461639 506.000000,513.000000 
	C465.979095,513.000000 425.958221,513.000000 385.468658,513.000000 
z"/>
<path fill="#0A0A0A" opacity="1.000000" stroke="none" 
	d="
M288.531342,1.000000 
	C289.000031,74.936981 289.001007,148.873962 288.999084,222.810944 
	C288.998779,234.156311 283.205841,239.965012 271.888153,239.983627 
	C267.225464,239.991302 262.562775,239.992416 257.433350,240.055328 
	C256.966614,240.114166 257.074768,239.974625 257.058228,239.430832 
	C257.027802,159.591354 257.013885,80.295677 257.000000,1.000000 
	C267.354218,1.000000 277.708466,1.000000 288.531342,1.000000 
z"/>
<path fill="#003034" opacity="1.000000" stroke="none" 
	d="
M256.531342,1.000000 
	C257.013885,80.295677 257.027802,159.591354 257.055969,239.342590 
	C251.914505,239.839615 246.758469,239.941360 241.603226,239.909927 
	C231.070297,239.845688 225.009827,233.708908 225.007446,223.061859 
	C224.992477,155.676270 224.999832,88.290672 224.999817,20.905073 
	C224.999817,14.582487 224.999832,8.259901 224.999908,1.468657 
	C235.354233,1.000000 245.708450,1.000000 256.531342,1.000000 
z"/>
<path fill="#0A0A0A" opacity="0.000000" stroke="none" 
	d="
M506.497894,513.000000 
	C508.147644,510.461639 510.295319,507.923309 512.721497,505.692505 
	C513.000000,508.247650 513.000000,510.495270 513.000000,513.000000 
	C511.001862,513.000000 508.998840,513.000000 506.497894,513.000000 
z"/>
<path fill="#0A0A0A" opacity="0.000000" stroke="none" 
	d="
M0.999994,506.497925 
	C3.542327,508.149475 6.084667,510.298950 8.313503,512.724243 
	C5.752364,513.000000 3.504728,513.000000 1.000000,513.000000 
	C1.000000,511.001862 1.000000,508.998840 0.999994,506.497925 
z"/>
<path fill="#0A0A0A" opacity="0.000000" stroke="none" 
	d="
M513.000000,7.502100 
	C510.460663,5.852252 507.921326,3.704493 505.690979,1.278368 
	C508.247650,1.000000 510.495270,1.000000 513.000000,1.000000 
	C513.000000,2.998142 513.000000,5.001166 513.000000,7.502100 
z"/>
<path fill="#0A0A0A" opacity="0.000000" stroke="none" 
	d="
M7.502095,1.000000 
	C5.850079,3.542095 3.700159,6.084191 1.275119,8.313143 
	C1.000000,5.752362 1.000000,3.504725 1.000000,1.000000 
	C2.998142,1.000000 5.001166,1.000000 7.502095,1.000000 
z"/>
</svg>