<svg version="1.1" id="Layer_1" xmlns="http://www.w3.org/2000/svg" xmlns:xlink="http://www.w3.org/1999/xlink"  
	 width="100%" viewBox="0 0 512 512" enable-background="new 0 0 512 512" xml:space="preserve">
<path fill="#FFEE8C" opacity="1.0" stroke="none" 
	d="
M0.999999,330.000000 
	C1.000000,324.311951 1.000000,318.623932 1.284775,312.779053 
	C3.103396,310.192444 4.527084,307.684265 6.189936,305.346222 
	C13.772479,294.684875 21.618254,284.204712 28.976290,273.391907 
	C33.588787,266.613678 37.013569,259.139923 33.905777,250.674820 
	C32.481125,246.794296 30.420258,243.054092 28.114620,239.606949 
	C19.692595,227.015152 11.051648,214.569656 2.443491,202.103363 
	C2.272038,201.855057 1.494680,202.025131 1.000000,202.000000 
	C1.000000,196.311966 1.000000,190.623917 1.262744,184.782593 
	C7.138369,180.405075 12.329088,175.386154 18.456755,172.130997 
	C29.394253,166.320770 40.973495,161.733170 52.145412,156.346100 
	C67.213837,149.080124 68.641495,139.824158 67.851479,125.345505 
	C67.103836,111.643326 64.760010,98.021812 64.168427,84.319473 
	C63.640427,72.089836 72.026245,64.167641 84.175697,64.070366 
	C91.088928,64.015007 98.032661,64.411339 104.917168,65.075638 
	C111.705208,65.730629 118.407455,67.431885 125.198624,67.859299 
	C134.577347,68.449562 144.504532,68.606888 150.894699,60.279591 
	C155.443909,54.351315 158.487122,47.234558 161.967621,40.526363 
	C167.739273,29.402227 173.236954,18.135479 179.055130,7.036317 
	C180.237808,4.780144 182.328110,2.999738 184.000000,1.000003 
	C189.688034,1.000000 195.376083,1.000000 201.220901,1.285093 
	C203.807190,3.103374 206.315125,4.526249 208.652740,6.188662 
	C219.311768,13.768965 229.814468,21.574331 240.590179,28.983450 
	C247.548782,33.768005 255.296661,37.089859 263.799347,33.840694 
	C268.994690,31.855362 273.896576,28.850866 278.541504,25.726179 
	C289.790161,18.159042 300.815613,10.259761 311.895752,2.444280 
	C312.145691,2.267966 311.974670,1.494774 312.000000,1.000000 
	C317.354919,1.000000 322.709869,1.000000 328.216858,1.273031 
	C335.350189,6.319612 339.905548,12.919490 343.258179,20.595308 
	C347.891632,31.203556 352.829132,41.679085 357.643341,52.208294 
	C364.453979,67.104019 374.945435,68.684868 388.679657,67.863480 
	C402.371796,67.044601 415.985657,64.759926 429.679230,64.168037 
	C441.937500,63.638191 449.829346,72.066437 449.929230,84.145866 
	C449.986298,91.051331 449.588470,97.987465 448.924622,104.864342 
	C448.269806,111.647797 446.614136,118.344406 446.121735,125.131645 
	C445.215027,137.630676 446.748901,148.817307 459.512085,155.061523 
	C467.900574,159.165451 476.369049,163.114990 484.890320,166.936111 
	C494.989380,171.464752 505.705963,175.007187 511.942841,185.236069 
	C512.003357,185.335342 512.635010,185.086395 513.000000,185.000000 
	C513.000000,190.354935 513.000000,195.709854 512.717712,201.217041 
	C510.903076,203.798645 509.481628,206.306885 507.819366,208.643784 
	C500.231903,219.310471 492.418610,229.820267 485.002808,240.603958 
	C480.216003,247.564743 476.923370,255.323837 480.161469,263.819305 
	C482.142395,269.016357 485.159424,273.914307 488.285461,278.560089 
	C495.849670,289.801910 503.744141,300.821686 511.555603,311.895569 
	C511.731964,312.145599 512.505188,311.974609 513.000000,312.000000 
	C513.000000,317.688049 513.000000,323.376068 512.737366,329.217438 
	C505.697083,337.918823 496.043304,342.245972 486.573151,346.718994 
	C477.996979,350.769806 468.914825,353.830353 460.616028,358.355103 
	C456.132629,360.799591 451.830780,364.793549 449.189484,369.145874 
	C443.766998,378.080933 446.297302,388.200592 447.063965,397.905060 
	C447.927399,408.834442 449.519928,419.731445 449.841461,430.670563 
	C450.105530,439.654297 444.024231,448.427673 435.019287,448.898376 
	C425.769653,449.381897 416.446198,449.028015 407.183350,448.522491 
	C397.879578,448.014740 388.615234,446.281128 379.324951,446.209473 
	C373.193756,446.162170 366.741699,448.136108 363.069672,453.649292 
	C358.891449,459.922516 355.518494,466.751587 352.033295,473.462585 
	C346.257690,484.583893 340.756561,495.848175 334.936737,506.945709 
	C333.751740,509.205353 331.668915,510.994141 330.000000,513.000000 
	C324.311951,513.000000 318.623932,513.000000 312.783325,512.717224 
	C310.203583,510.904572 307.697144,509.486176 305.362946,507.825653 
	C294.693207,500.235596 284.181854,492.417480 273.393463,485.001556 
	C266.437134,480.219818 258.685028,476.913147 250.188766,480.159973 
	C244.992493,482.145660 240.090866,485.152863 235.444763,488.277954 
	C224.194885,495.844879 213.167770,503.743256 202.086319,511.558319 
	C201.840775,511.731506 202.019287,512.505981 202.000000,513.000000 
	C196.311966,513.000000 190.623917,513.000000 184.782562,512.737488 
	C180.404648,506.858673 175.372711,501.668884 172.130981,495.533295 
	C166.197388,484.302826 161.742950,472.290497 155.801788,461.064606 
	C153.346786,456.425873 149.266129,452.005615 144.841461,449.186310 
	C135.945877,443.518188 125.784439,446.391235 116.100967,447.083344 
	C105.167511,447.864838 94.275284,449.515045 83.336784,449.843353 
	C74.319237,450.114044 65.605591,443.974579 65.093117,435.041931 
	C64.570724,425.936462 64.733658,416.752136 65.242165,407.638367 
	C65.732414,398.851746 67.601723,390.125214 67.824684,381.345856 
	C68.003738,374.295349 66.334862,366.974609 60.001400,362.736298 
	C53.755974,358.556854 46.775154,355.464722 40.069214,351.987671 
	C29.074459,346.286865 17.997103,340.743378 7.060047,334.934998 
	C4.803008,333.736298 3.007977,331.667664 0.999999,330.000000 
M276.961212,87.072395 
	C265.347107,87.010956 253.681442,86.213715 242.128372,87.023277 
	C204.441559,89.664124 171.204437,103.959427 143.549805,129.350235 
	C96.894714,172.186157 77.379082,225.755173 89.340149,288.075592 
	C102.529694,356.796753 144.885223,401.122559 211.599869,421.745819 
	C233.113602,428.396301 255.417221,429.345032 278.672546,426.964905 
	C280.467896,426.662720 282.263214,426.360596 284.058563,426.058350 
	C323.829193,419.363098 357.356293,401.352570 384.390320,371.236023 
	C401.109680,352.610229 413.080414,331.433899 420.690887,307.631958 
	C427.532715,286.234009 429.403107,264.246826 427.758423,242.088531 
	C426.376007,223.463455 421.566223,205.434830 413.941986,188.270721 
	C402.676239,162.908615 386.335052,141.414948 364.797119,123.897675 
	C351.672089,113.222801 337.295410,104.612022 321.592010,98.326843 
	C307.508209,92.689888 292.989807,88.596573 276.961212,87.072395 
z"/>
<path fill="#FFEE8C" opacity="0.000000" stroke="none" 
	d="
M513.000000,184.531342 
	C512.635010,185.086395 512.003357,185.335342 511.942841,185.236069 
	C505.705963,175.007187 494.989380,171.464752 484.890320,166.936111 
	C476.369049,163.114990 467.900574,159.165451 459.512085,155.061523 
	C446.748901,148.817307 445.215027,137.630676 446.121735,125.131645 
	C446.614136,118.344406 448.269806,111.647797 448.924622,104.864342 
	C449.588470,97.987465 449.986298,91.051331 449.929230,84.145866 
	C449.829346,72.066437 441.937500,63.638191 429.679230,64.168037 
	C415.985657,64.759926 402.371796,67.044601 388.679657,67.863480 
	C374.945435,68.684868 364.453979,67.104019 357.643341,52.208294 
	C352.829132,41.679085 347.891632,31.203556 343.258179,20.595308 
	C339.905548,12.919490 335.350189,6.319612 328.684479,1.273031 
	C390.260345,1.000000 451.520721,1.000000 513.000000,1.000000 
	C513.000000,62.020721 513.000000,123.041702 513.000000,184.531342 
z"/>
<path fill="#FFEE8C" opacity="0.000000" stroke="none" 
	d="
M330.468658,513.000000 
	C331.668915,510.994141 333.751740,509.205353 334.936737,506.945709 
	C340.756561,495.848175 346.257690,484.583893 352.033295,473.462585 
	C355.518494,466.751587 358.891449,459.922516 363.069672,453.649292 
	C366.741699,448.136108 373.193756,446.162170 379.324951,446.209473 
	C388.615234,446.281128 397.879578,448.014740 407.183350,448.522491 
	C416.446198,449.028015 425.769653,449.381897 435.019287,448.898376 
	C444.024231,448.427673 450.105530,439.654297 449.841461,430.670563 
	C449.519928,419.731445 447.927399,408.834442 447.063965,397.905060 
	C446.297302,388.200592 443.766998,378.080933 449.189484,369.145874 
	C451.830780,364.793549 456.132629,360.799591 460.616028,358.355103 
	C468.914825,353.830353 477.996979,350.769806 486.573151,346.718994 
	C496.043304,342.245972 505.697083,337.918823 512.737366,329.685364 
	C513.000000,390.927032 513.000000,451.854034 513.000000,513.000000 
	C452.312622,513.000000 391.624969,513.000000 330.468658,513.000000 
z"/>
<path fill="#FFEE8C" opacity="0.000000" stroke="none" 
	d="
M0.999999,330.468658 
	C3.007977,331.667664 4.803008,333.736298 7.060047,334.934998 
	C17.997103,340.743378 29.074459,346.286865 40.069214,351.987671 
	C46.775154,355.464722 53.755974,358.556854 60.001400,362.736298 
	C66.334862,366.974609 68.003738,374.295349 67.824684,381.345856 
	C67.601723,390.125214 65.732414,398.851746 65.242165,407.638367 
	C64.733658,416.752136 64.570724,425.936462 65.093117,435.041931 
	C65.605591,443.974579 74.319237,450.114044 83.336784,449.843353 
	C94.275284,449.515045 105.167511,447.864838 116.100967,447.083344 
	C125.784439,446.391235 135.945877,443.518188 144.841461,449.186310 
	C149.266129,452.005615 153.346786,456.425873 155.801788,461.064606 
	C161.742950,472.290497 166.197388,484.302826 172.130981,495.533295 
	C175.372711,501.668884 180.404648,506.858673 184.314636,512.737488 
	C123.072990,513.000000 62.145973,513.000000 1.000000,513.000000 
	C1.000000,452.312622 1.000000,391.624969 0.999999,330.468658 
z"/>
<path fill="#FFEE8C" opacity="0.000000" stroke="none" 
	d="
M183.531342,1.000003 
	C182.328110,2.999738 180.237808,4.780144 179.055130,7.036317 
	C173.236954,18.135479 167.739273,29.402227 161.967621,40.526363 
	C158.487122,47.234558 155.443909,54.351315 150.894699,60.279591 
	C144.504532,68.606888 134.577347,68.449562 125.198624,67.859299 
	C118.407455,67.431885 111.705208,65.730629 104.917168,65.075638 
	C98.032661,64.411339 91.088928,64.015007 84.175697,64.070366 
	C72.026245,64.167641 63.640427,72.089836 64.168427,84.319473 
	C64.760010,98.021812 67.103836,111.643326 67.851479,125.345505 
	C68.641495,139.824158 67.213837,149.080124 52.145412,156.346100 
	C40.973495,161.733170 29.394253,166.320770 18.456755,172.130997 
	C12.329088,175.386154 7.138369,180.405075 1.262744,184.314636 
	C1.000000,123.072975 1.000000,62.145950 1.000000,1.000000 
	C61.687386,1.000000 122.375031,1.000000 183.531342,1.000003 
z"/>
<path fill="#FFEE8C" opacity="0.000000" stroke="none" 
	d="
M311.531372,1.000000 
	C311.974670,1.494774 312.145691,2.267966 311.895752,2.444280 
	C300.815613,10.259761 289.790161,18.159042 278.541504,25.726179 
	C273.896576,28.850866 268.994690,31.855362 263.799347,33.840694 
	C255.296661,37.089859 247.548782,33.768005 240.590179,28.983450 
	C229.814468,21.574331 219.311768,13.768965 208.652740,6.188662 
	C206.315125,4.526249 203.807190,3.103374 201.688843,1.285093 
	C238.354233,1.000000 274.708466,1.000000 311.531372,1.000000 
z"/>
<path fill="#FFEE8C" opacity="0.000000" stroke="none" 
	d="
M513.000000,311.531342 
	C512.505188,311.974609 511.731964,312.145599 511.555603,311.895569 
	C503.744141,300.821686 495.849670,289.801910 488.285461,278.560089 
	C485.159424,273.914307 482.142395,269.016357 480.161469,263.819305 
	C476.923370,255.323837 480.216003,247.564743 485.002808,240.603958 
	C492.418610,229.820267 500.231903,219.310471 507.819366,208.643784 
	C509.481628,206.306885 510.903076,203.798645 512.717712,201.684662 
	C513.000000,238.354233 513.000000,274.708466 513.000000,311.531342 
z"/>
<path fill="#FFEE8C" opacity="0.000000" stroke="none" 
	d="
M202.468658,513.000000 
	C202.019287,512.505981 201.840775,511.731506 202.086319,511.558319 
	C213.167770,503.743256 224.194885,495.844879 235.444763,488.277954 
	C240.090866,485.152863 244.992493,482.145660 250.188766,480.159973 
	C258.685028,476.913147 266.437134,480.219818 273.393463,485.001556 
	C284.181854,492.417480 294.693207,500.235596 305.362946,507.825653 
	C307.697144,509.486176 310.203583,510.904572 312.315369,512.717224 
	C275.645782,513.000000 239.291550,513.000000 202.468658,513.000000 
z"/>
<path fill="#FFEE8C" opacity="0.000000" stroke="none" 
	d="
M1.000000,202.468658 
	C1.494680,202.025131 2.272038,201.855057 2.443491,202.103363 
	C11.051648,214.569656 19.692595,227.015152 28.114620,239.606949 
	C30.420258,243.054092 32.481125,246.794296 33.905777,250.674820 
	C37.013569,259.139923 33.588787,266.613678 28.976290,273.391907 
	C21.618254,284.204712 13.772479,294.684875 6.189936,305.346222 
	C4.527084,307.684265 3.103396,310.192444 1.284775,312.311127 
	C1.000000,275.645782 1.000000,239.291550 1.000000,202.468658 
z"/>
<path fill="#FFD073" opacity="1.000000" stroke="none" 
	d="
M277.825165,87.099152 
	C292.989807,88.596573 307.508209,92.689888 321.592010,98.326843 
	C337.295410,104.612022 351.672089,113.222801 364.797119,123.897675 
	C386.335052,141.414948 402.676239,162.908615 413.941986,188.270721 
	C421.566223,205.434830 426.376007,223.463455 427.758423,242.088531 
	C429.403107,264.246826 427.532715,286.234009 420.690887,307.631958 
	C413.080414,331.433899 401.109680,352.610229 384.390320,371.236023 
	C357.356293,401.352570 323.829193,419.363098 284.058563,426.058350 
	C282.263214,426.360596 280.467896,426.662720 278.024231,426.661163 
	C275.973663,425.899261 274.601624,425.286530 273.164734,425.005402 
	C231.316940,416.817841 196.817993,396.292725 170.409927,362.816437 
	C140.174286,324.488068 128.732162,280.542053 135.399384,232.525452 
	C141.007584,192.135818 159.404800,157.877747 189.959015,130.336411 
	C213.024384,109.545494 239.582840,95.973892 269.961456,89.721313 
	C272.648743,89.168213 275.207001,87.988068 277.825165,87.099152 
M209.944260,288.250763 
	C210.978989,290.069763 211.657898,292.258270 213.103622,293.650482 
	C227.066406,307.096130 243.682983,312.979553 263.093842,311.161621 
	C278.139130,309.752472 290.924500,303.802307 301.521698,293.107483 
	C304.613556,289.987152 304.926147,285.243439 302.444702,282.297455 
	C300.039612,279.442108 294.979248,278.981689 291.485016,281.394165 
	C290.398895,282.144043 289.495514,283.156311 288.495911,284.034119 
	C279.626404,291.822662 269.184082,295.800171 257.485291,295.879669 
	C244.862930,295.965485 233.650131,291.787933 224.429718,282.955170 
	C221.488525,280.137665 217.912964,278.637573 214.503891,280.558105 
	C212.364883,281.763123 211.413025,285.075409 209.944260,288.250763 
M172.495377,221.733292 
	C175.070724,221.138489 177.618195,220.248993 180.226471,220.002441 
	C189.137558,219.160126 196.908371,221.736252 203.579666,227.888794 
	C207.098450,231.133942 212.636292,230.856598 215.316650,227.814514 
	C217.971039,224.801895 217.506805,220.038773 214.226898,216.633163 
	C198.059799,199.846497 167.989639,199.774963 152.042526,216.485245 
	C148.281799,220.425949 148.045044,224.458038 151.369766,227.942703 
	C154.261169,230.973160 158.802063,230.863724 162.621811,228.010239 
	C165.535400,225.833710 168.715561,224.014008 172.495377,221.733292 
M337.805939,204.477463 
	C323.417572,202.529907 310.797424,206.304276 300.174683,216.279053 
	C296.441589,219.784424 295.916229,224.636978 298.649902,227.781937 
	C301.405609,230.952240 306.855530,230.895340 310.806763,227.654953 
	C323.977234,216.853943 338.064758,216.875412 351.141846,227.716400 
	C355.109222,231.005386 359.736481,231.060394 362.715179,227.854034 
	C365.972107,224.348190 365.769226,220.264923 361.857788,216.422684 
	C355.387848,210.067215 347.627808,206.151428 337.805939,204.477463 
z"/>
<path fill="#F29044" opacity="1.000000" stroke="none" 
	d="
M277.393188,87.085770 
	C275.207001,87.988068 272.648743,89.168213 269.961456,89.721313 
	C239.582840,95.973892 213.024384,109.545494 189.959015,130.336411 
	C159.404800,157.877747 141.007584,192.135818 135.399384,232.525452 
	C128.732162,280.542053 140.174286,324.488068 170.409927,362.816437 
	C196.817993,396.292725 231.316940,416.817841 273.164734,425.005402 
	C274.601624,425.286530 275.973663,425.899261 277.595245,426.626892 
	C255.417221,429.345032 233.113602,428.396301 211.599869,421.745819 
	C144.885223,401.122559 102.529694,356.796753 89.340149,288.075592 
	C77.379082,225.755173 96.894714,172.186157 143.549805,129.350235 
	C171.204437,103.959427 204.441559,89.664124 242.128372,87.023277 
	C253.681442,86.213715 265.347107,87.010956 277.393188,87.085770 
z"/>
<path fill="#CD9337" opacity="1.000000" stroke="none" 
	d="
M209.936401,287.846497 
	C211.413025,285.075409 212.364883,281.763123 214.503891,280.558105 
	C217.912964,278.637573 221.488525,280.137665 224.429718,282.955170 
	C233.650131,291.787933 244.862930,295.965485 257.485291,295.879669 
	C269.184082,295.800171 279.626404,291.822662 288.495911,284.034119 
	C289.495514,283.156311 290.398895,282.144043 291.485016,281.394165 
	C294.979248,278.981689 300.039612,279.442108 302.444702,282.297455 
	C304.926147,285.243439 304.613556,289.987152 301.521698,293.107483 
	C290.924500,303.802307 278.139130,309.752472 263.093842,311.161621 
	C243.682983,312.979553 227.066406,307.096130 213.103622,293.650482 
	C211.657898,292.258270 210.978989,290.069763 209.936401,287.846497 
z"/>
<path fill="#CD9337" opacity="1.000000" stroke="none" 
	d="
M172.136261,221.884430 
	C168.715561,224.014008 165.535400,225.833710 162.621811,228.010239 
	C158.802063,230.863724 154.261169,230.973160 151.369766,227.942703 
	C148.045044,224.458038 148.281799,220.425949 152.042526,216.485245 
	C167.989639,199.774963 198.059799,199.846497 214.226898,216.633163 
	C217.506805,220.038773 217.971039,224.801895 215.316650,227.814514 
	C212.636292,230.856598 207.098450,231.133942 203.579666,227.888794 
	C196.908371,221.736252 189.137558,219.160126 180.226471,220.002441 
	C177.618195,220.248993 175.070724,221.138489 172.136261,221.884430 
z"/>
<path fill="#CD9337" opacity="1.000000" stroke="none" 
	d="
M338.227020,204.594299 
	C347.627808,206.151428 355.387848,210.067215 361.857788,216.422684 
	C365.769226,220.264923 365.972107,224.348190 362.715179,227.854034 
	C359.736481,231.060394 355.109222,231.005386 351.141846,227.716400 
	C338.064758,216.875412 323.977234,216.853943 310.806763,227.654953 
	C306.855530,230.895340 301.405609,230.952240 298.649902,227.781937 
	C295.916229,224.636978 296.441589,219.784424 300.174683,216.279053 
	C310.797424,206.304276 323.417572,202.529907 338.227020,204.594299 
z"/>
</svg>